<svg id="Camada_1" data-name="Camada 1" xmlns="http://www.w3.org/2000/svg" viewBox="0 0 1280 1024"><defs><style>.cls-1{fill:none;stroke-width:8px;}.cls-1,.cls-2,.cls-3,.cls-4,.cls-5{stroke:#000;stroke-linecap:round;stroke-linejoin:round;}.cls-2{fill:#c1ead8;}.cls-2,.cls-3,.cls-4,.cls-5{stroke-width:7px;}.cls-3{fill:#cc926a;}.cls-4{fill:#a07e62;}.cls-5{fill:#779377;}.cls-6{font-size:72px;}.cls-10,.cls-6{font-family:Rubik-Medium, Rubik;font-weight:500;}.cls-7{letter-spacing:-0.07em;}.cls-8{letter-spacing:-0.01em;}.cls-9{letter-spacing:-0.01em;}.cls-10{font-size:26px;}.cls-11{letter-spacing:-0.01em;}.cls-12{letter-spacing:-0.02em;}.cls-13{letter-spacing:-0.01em;}.cls-14{letter-spacing:-0.05em;}.cls-15{letter-spacing:-0.01em;}.cls-16{letter-spacing:0em;}.cls-17{letter-spacing:0em;}</style></defs><title>Incones-svg</title><path class="cls-1" d="M117.49,376.46l-.55-106.61a11,11,0,0,1,11-11l249.14.08a11,11,0,0,1,11,11l-.39,106.25Z"/><path class="cls-1" d="M113.13,313.67H76l0,79.17a23.31,23.31,0,0,0,23.32,23.33l305.21-.06a23.32,23.32,0,0,0,23.32-23.27l.17-79.06H388.7"/><line class="cls-1" x1="117.83" y1="446.11" x2="117.83" y2="416.18"/><line class="cls-1" x1="388.91" y1="446.19" x2="388.91" y2="416.26"/><line class="cls-1" x1="253.13" y1="258.85" x2="253.1" y2="376.65"/><line class="cls-1" x1="579.85" y1="882.15" x2="579.85" y2="852.22"/><line class="cls-1" x1="715.93" y1="882.15" x2="715.93" y2="852.22"/><path class="cls-1" d="M590.17,766.5H705.83a10.67,10.67,0,0,1,10.67,10.67V810.5a0,0,0,0,1,0,0h-137a0,0,0,0,1,0,0V777.17A10.67,10.67,0,0,1,590.17,766.5Z"/><rect class="cls-1" x="579.5" y="810.5" width="137" height="44"/><path class="cls-1" d="M574.11,310.71H533.5v91.71a10.79,10.79,0,0,0,10.81,10.79L739,413.05a10.81,10.81,0,0,0,10.79-10.78l.17-91.56H710.69"/><line class="cls-1" x1="574.85" y1="443.15" x2="574.85" y2="413.22"/><line class="cls-1" x1="709.93" y1="443.15" x2="709.93" y2="413.22"/><path class="cls-1" d="M585.54,251.5H698.46a11,11,0,0,1,11,11v107a0,0,0,0,1,0,0h-135a0,0,0,0,1,0,0v-107A11,11,0,0,1,585.54,251.5Z"/><path class="cls-2" d="M902.54,401.5h112.92a11,11,0,0,1,11,11v107a0,0,0,0,1,0,0h-135a0,0,0,0,1,0,0v-107A11,11,0,0,1,902.54,401.5Z"/><path class="cls-3" d="M902.54,558.5h112.92a11,11,0,0,1,11,11v107a0,0,0,0,1,0,0h-135a0,0,0,0,1,0,0v-107A11,11,0,0,1,902.54,558.5Z"/><path class="cls-4" d="M902.54,715.5h112.92a11,11,0,0,1,11,11v107a0,0,0,0,1,0,0h-135a0,0,0,0,1,0,0v-107A11,11,0,0,1,902.54,715.5Z"/><path class="cls-5" d="M902.54,251.5h112.92a11,11,0,0,1,11,11v107a0,0,0,0,1,0,0h-135a0,0,0,0,1,0,0v-107A11,11,0,0,1,902.54,251.5Z"/><path class="cls-1" d="M264.17,707.5H379.83a10.67,10.67,0,0,1,10.67,10.67V751.5a0,0,0,0,1,0,0h-137a0,0,0,0,1,0,0V718.17A10.67,10.67,0,0,1,264.17,707.5Z"/><rect class="cls-1" x="254.5" y="751.5" width="135" height="118"/><line class="cls-1" x1="642.44" y1="544" x2="642.81" y2="660.65"/><path class="cls-1" d="M584.17,498.5H699.83a10.67,10.67,0,0,1,10.67,10.67V542.5a0,0,0,0,1,0,0h-137a0,0,0,0,1,0,0V509.17A10.67,10.67,0,0,1,584.17,498.5Z"/><rect class="cls-1" x="574.5" y="542.5" width="135" height="118"/><line class="cls-1" x1="253.85" y1="660.15" x2="253.85" y2="630.22"/><line class="cls-1" x1="117.07" y1="660.15" x2="117.07" y2="633"/><line class="cls-1" x1="389.93" y1="660.15" x2="389.93" y2="630.22"/><path class="cls-1" d="M253.5,588.5H379.74a10.76,10.76,0,0,1,10.76,10.76V632.5a0,0,0,0,1,0,0h-137a0,0,0,0,1,0,0v-44A0,0,0,0,1,253.5,588.5Z"/><path class="cls-1" d="M253.5,588.5h-137V526.93a10.43,10.43,0,0,0-10.43-10.43H86A10.43,10.43,0,0,0,75.54,527l.4,94.66A10.91,10.91,0,0,0,86.85,632.5H253.5Z"/><text class="cls-6" transform="translate(70.54 130.99)"><tspan class="cls-7">T</tspan><tspan class="cls-8" x="38.88" y="0">r</tspan><tspan x="68.47" y="0">ansiçã</tspan><tspan class="cls-9" x="294.48" y="0">o</tspan><tspan x="336.67" y="0">.</tspan></text><text class="cls-10" transform="translate(70.54 175.33)">Ícones pa<tspan class="cls-11" x="119.99" y="0">r</tspan><tspan x="130.67" y="0">a</tspan><tspan class="cls-12" x="145.54" y="0"> </tspan><tspan class="cls-13" x="150.9" y="0">w</tspan><tspan x="171.86" y="0">ebsite Decorli</tspan><tspan class="cls-14" x="344.05" y="0">r</tspan><tspan x="353.54" y="0">.</tspan></text><text class="cls-10" transform="translate(1084.38 834.94) rotate(-90)">P<tspan class="cls-15" x="17.16" y="0">r</tspan><tspan class="cls-16" x="27.87" y="0">opo</tspan><tspan class="cls-17" x="74.67" y="0">s</tspan><tspan x="88.48" y="0">ta de co</tspan><tspan class="cls-15" x="187.69" y="0">r</tspan><tspan x="198.4" y="0">es.</tspan></text></svg>