<svg id="Camada_1" data-name="Camada 1" xmlns="http://www.w3.org/2000/svg" viewBox="0 0 1280 1024"><defs><style>.cls-1{fill:#c1ead8;}.cls-1,.cls-2,.cls-3,.cls-4,.cls-5{stroke:#000;stroke-linecap:round;stroke-linejoin:round;stroke-width:7px;}.cls-2{fill:none;}.cls-3{fill:#cc926a;}.cls-4{fill:#c3e1d5;}.cls-5{fill:#779377;}.cls-6{font-size:26px;font-family:Rubik-Medium, Rubik;font-weight:500;}.cls-7{letter-spacing:-0.01em;}.cls-8{letter-spacing:-0.02em;}.cls-9{letter-spacing:-0.01em;}.cls-10{letter-spacing:-0.05em;}</style></defs><title>Incones-svg</title><rect class="cls-1" x="161.69" y="763.75" width="296.52" height="113.99"/><line class="cls-2" x1="188.68" y1="849.99" x2="188.68" y2="877.74"/><line class="cls-2" x1="202.44" y1="849.99" x2="202.44" y2="877.74"/><line class="cls-2" x1="215.54" y1="849.99" x2="215.54" y2="877.74"/><line class="cls-2" x1="175.59" y1="820.74" x2="175.26" y2="877.74"/><line class="cls-2" x1="227.98" y1="819.24" x2="227.65" y2="876.24"/><line class="cls-2" x1="241.74" y1="849.24" x2="241.74" y2="876.99"/><line class="cls-2" x1="255.49" y1="849.24" x2="255.49" y2="876.99"/><line class="cls-2" x1="268.59" y1="849.24" x2="268.59" y2="876.99"/><line class="cls-2" x1="281.03" y1="818.5" x2="280.71" y2="875.49"/><line class="cls-2" x1="295.44" y1="849.24" x2="295.44" y2="876.99"/><line class="cls-2" x1="309.2" y1="849.24" x2="309.2" y2="876.99"/><line class="cls-2" x1="322.3" y1="849.24" x2="322.3" y2="876.99"/><line class="cls-2" x1="334.74" y1="819.99" x2="334.41" y2="876.99"/><line class="cls-2" x1="349.15" y1="849.24" x2="349.15" y2="876.99"/><line class="cls-2" x1="362.9" y1="849.24" x2="362.9" y2="876.99"/><line class="cls-2" x1="376" y1="849.24" x2="376" y2="876.99"/><line class="cls-2" x1="388.45" y1="818.5" x2="388.12" y2="875.49"/><line class="cls-2" x1="402.86" y1="849.24" x2="402.86" y2="876.99"/><line class="cls-2" x1="416.61" y1="849.24" x2="416.61" y2="876.99"/><line class="cls-2" x1="429.71" y1="849.24" x2="429.71" y2="876.99"/><line class="cls-2" x1="443.18" y1="818.5" x2="442.85" y2="875.49"/><path class="cls-2" d="M161,497s19.66.6,20.86-13.11,0,82.25,0,82.25"/><path class="cls-2" d="M223,566.54c13.7,0,14.3-14.3,14.3-14.3V498.37q0-.8.06-1.59c.19-2.79.13-13.94-13.17-13.68-12.81.25-15.26,8.95-14.9,14.31.6,8.94,17.28,21.45,27.71,1.49"/><path class="cls-2" d="M332.2,566.54c13.7,0,14.3-14.3,14.3-14.3V498.37q0-.8.06-1.59c.19-2.79.13-13.94-13.17-13.68-12.81.25-15.26,8.95-14.9,14.31.59,8.94,17.28,21.45,27.71,1.49"/><path class="cls-2" d="M280.43,481.91s-13.71.6-13.71,13.11,21.78,16.27,28.65,36.11c4.69,13.55,2.14,25.63-.34,29.75-3.57,6-9.58,6.12-13.4,6.12-3.57,0-10.48.4-13.73-6.11-3.58-7.15-4.95-17.78-1.77-29.51,4.82-17.8,26.82-23.25,27.41-36.95C294.09,481.91,280.43,481.91,280.43,481.91Z"/><path class="cls-2" d="M164.58,277.71V338s24.7,5.42,24.7-34.34-24.7-36.15-24.7-36.15Z"/><polyline class="cls-2" points="225.75 267.47 208.28 267.47 208.28 337.95 225.75 337.95"/><line class="cls-2" x1="221.53" y1="295.78" x2="208.28" y2="295.78"/><path class="cls-2" d="M286.28,277.71V338s24.7,5.42,24.7-34.34-24.7-36.15-24.7-36.15Z"/><polyline class="cls-2" points="348.37 267.47 330.9 267.47 330.9 337.95 348.37 337.95"/><line class="cls-2" x1="344.15" y1="295.78" x2="330.9" y2="295.78"/><path class="cls-2" d="M265.89,282.53s2.6-15.06-12.32-15.06c-6.49,0-10.38,6-10.38,13.25s.11,13.89,11.67,17.47c13.63,4.22,12.33,11.45,12.33,20.49,0,6.62,1.95,19.28-12.33,19.28-13.62,0-11.67-13.26-11.67-13.26"/><path class="cls-2" d="M183.6,389.67s2.59-15.06-12.33-15.06c-6.49,0-10.38,6-10.38,13.25s.12,13.89,11.68,17.47c13.62,4.22,12.32,11.45,12.32,20.48,0,6.63,2,19.28-12.32,19.28-13.62,0-11.68-13.25-11.68-13.25"/><line class="cls-2" x1="211.89" y1="374.09" x2="211.89" y2="445.18"/><polyline class="cls-2" points="237.99 445.18 237.99 374.09 264.5 445.18 264.5 374.09"/><path class="cls-2" d="M313.38,387.34s0-13.25-12.05-13.25S285.67,388.55,285.67,397v26.51c0,13.25,7.23,21.69,15.66,21.69s12.05-7.23,12.05-14.46"/><polyline class="cls-2" points="349.72 375.81 332.25 375.81 332.25 446.3 349.72 446.3"/><line class="cls-2" x1="345.51" y1="404.13" x2="332.25" y2="404.13"/><polyline class="cls-1" points="713.44 296.42 723.5 263.5 732.21 296.42"/><path class="cls-1" d="M712.35,533.85h13a9.31,9.31,0,0,1,9.31,9.31v5.39a9.31,9.31,0,0,1-9.31,9.31h-13a0,0,0,0,1,0,0v-24a0,0,0,0,1,0,0Z" transform="translate(1269.35 -177.65) rotate(90)"/><rect class="cls-1" x="612.1" y="397.89" width="222.08" height="23.14" rx="2.04" transform="translate(1132.6 -313.67) rotate(90)"/><line class="cls-1" x1="726.98" y1="276.85" x2="720.26" y2="276.85"/><path class="cls-3" d="M886.5,690.5l-123,.39a11,11,0,0,0-11,11l.39,106.25,133,.34"/><path class="cls-4" d="M887.5,849l157.07-.37c9,0,16.23-5.57,16.25-12.41L1061,757a11.19,11.19,0,0,0-11.16-11.23L889.5,744.5"/><rect class="cls-5" x="634.62" y="279.32" width="14.38" height="27.09"/><path class="cls-5" d="M609.74,313.61c2.21-12.72,22.67-11.06,22.67-11.06L634.62,281c-14.37,0-26-14.93-26-14.93s-25.44-.55-42.58-.55c-63.59,0-53.08,44.79-53.08,44.79s8.84-22.67,36.49-19.91c14.35,1.44,16,2.21,16.59,11.06s.55,13.27.55,13.27"/><path class="cls-5" d="M567.16,345.68,563,545.83a9.77,9.77,0,0,0,9.75,10h28.21c5.46,0,8.59-4.3,8.75-9.94L606.5,344.5"/><rect class="cls-1" x="708.5" y="520.5" width="29" height="14"/><polyline class="cls-3" points="195.17 705.81 162.25 695.75 195.17 687.04"/><path class="cls-3" d="M433.45,683.75h13a9.31,9.31,0,0,1,9.31,9.31v5.39a9.31,9.31,0,0,1-9.31,9.31h-13a0,0,0,0,1,0,0v-24a0,0,0,0,1,0,0Z"/><rect class="cls-3" x="197.17" y="684.54" width="222.08" height="23.14" rx="2.04"/><line class="cls-3" x1="175.6" y1="692.27" x2="175.6" y2="698.99"/><rect class="cls-3" x="411.75" y="689.25" width="29" height="14" transform="translate(-270 1122.5) rotate(-90)"/><path class="cls-3" d="M752.53,881V744.5H727.59c-14.43,0-34.12,9.19-34.12,35.44s26.25,31.5,26.25,31.5V881Z"/><rect class="cls-3" x="752.5" y="808.5" width="135" height="40"/><line class="cls-4" x1="887.5" y1="808.5" x2="1020.76" y2="808.5"/><line class="cls-2" x1="1020.66" y1="848.5" x2="1020.5" y2="880.5"/><text class="cls-6" transform="translate(70.54 175.33)">Ícones pa<tspan class="cls-7" x="119.99" y="0">r</tspan><tspan x="130.67" y="0">a</tspan><tspan class="cls-8" x="145.54" y="0"> </tspan><tspan class="cls-9" x="150.9" y="0">w</tspan><tspan x="171.86" y="0">ebsite Decorli</tspan><tspan class="cls-10" x="344.05" y="0">r</tspan><tspan x="353.54" y="0">.</tspan></text><path class="cls-1" d="M916.05,547.46a10,10,0,0,0,14.17,2.77c16-11.37,50.59-35.79,67-47.07a10.25,10.25,0,0,0,2.66-14.25c-17.48-25.47-81-115-87.85-124.45"/><path class="cls-5" d="M1052.35,385.72c-19.88-9-95-41.53-141.25-61.47,0,9.82,0,23.25-.07,36.82L986,469l25,10.24a10,10,0,0,0,13.55-5c7.84-18,24.72-56.82,32.92-75A10.25,10.25,0,0,0,1052.35,385.72Z"/><path class="cls-3" d="M911.1,324.25c0-7.75,0-13.25-.1-14.78-.35-6.73,1.77-13.1-13.1-21.61s-16.64-9.56-25.14-14.52-13.45-5-23,.35-22,12.75-27.27,16.64-8.15,6.73-8.86,13.81,0,106.93,0,111.18c0,3.54.38,98.83.18,131.52a10,10,0,0,0,10.38,10c19.64-.79,60.92.56,80.84,0a10.25,10.25,0,0,0,10-10.5c-.78-30.88-3.07-120.79-3.66-132.5-.34-6.86.13-64.6.17-87.42"/><circle class="cls-2" cx="862.27" cy="306.99" r="11.12"/><path class="cls-4" d="M886.5,690.5l123.57.39c6.08,0,11,3.7,11,8.24l-.38,109.61-133,.25"/><line class="cls-2" x1="887.5" y1="638.5" x2="887.5" y2="932.5"/><path class="cls-5" d="M610.85,323.91v10.76a12.25,12.25,0,0,1-12.12,12.25l-23.67.28a11.64,11.64,0,0,1-11.77-11.63V324.24a9.64,9.64,0,0,1,9.53-9.64l28.28-.33A9.64,9.64,0,0,1,610.85,323.91Z"/></svg>